<svg width="510" height="510" viewBox="0 0 510 510" fill="none" xmlns="http://www.w3.org/2000/svg">
<rect width="510" height="510" fill="#1E1E1E"/>
<rect width="510" height="510" rx="30" fill="#F2F2F2"/>
<g filter="url(#filter0_d_22_2)">
<path d="M453.306 187.732L288.306 301.732L265 268.001L430 154L453.306 187.732Z" fill="#4CB393"/>
</g>
<g filter="url(#filter1_d_22_2)">
<path d="M190.682 220.182L179.091 290H160.136L171.727 220.182H190.682Z" fill="#4C6CB3"/>
</g>
<g filter="url(#filter2_d_22_2)">
<path d="M238.5 220.182H257.182L249.273 268.045C248.5 272.591 246.705 276.591 243.886 280.045C241.068 283.477 237.511 286.159 233.216 288.091C228.92 290 224.182 290.955 219 290.955C214.545 290.955 210.591 290.182 207.136 288.636C203.705 287.068 201.159 284.614 199.5 281.273C197.864 277.909 197.5 273.545 198.409 268.182H217.364C217.136 269.955 217.182 271.443 217.5 272.648C217.818 273.83 218.409 274.727 219.273 275.341C220.136 275.932 221.273 276.227 222.682 276.227C224.091 276.227 225.33 275.92 226.398 275.307C227.466 274.67 228.352 273.75 229.057 272.545C229.761 271.318 230.273 269.818 230.591 268.045L238.5 220.182Z" fill="#4C6CB3"/>
</g>
<g filter="url(#filter3_d_22_2)">
<path d="M159 380L34 255L159 130L188.167 159.167L92.3333 255L188.167 350.833L159 380Z" fill="#4C6CB3"/>
</g>
<line x1="278" y1="246" x2="278" y2="334" stroke="#F2F2F2" stroke-width="30"/>
<defs>
<filter id="filter0_d_22_2" x="263" y="154" width="196.306" height="155.732" filterUnits="userSpaceOnUse" color-interpolation-filters="sRGB">
<feFlood flood-opacity="0" result="BackgroundImageFix"/>
<feColorMatrix in="SourceAlpha" type="matrix" values="0 0 0 0 0 0 0 0 0 0 0 0 0 0 0 0 0 0 127 0" result="hardAlpha"/>
<feOffset dx="2" dy="4"/>
<feGaussianBlur stdDeviation="2"/>
<feComposite in2="hardAlpha" operator="out"/>
<feColorMatrix type="matrix" values="0 0 0 0 0 0 0 0 0 0 0 0 0 0 0 0 0 0 0.25 0"/>
<feBlend mode="normal" in2="BackgroundImageFix" result="effect1_dropShadow_22_2"/>
<feBlend mode="normal" in="SourceGraphic" in2="effect1_dropShadow_22_2" result="shape"/>
</filter>
<filter id="filter1_d_22_2" x="158.136" y="220.182" width="38.5454" height="77.8182" filterUnits="userSpaceOnUse" color-interpolation-filters="sRGB">
<feFlood flood-opacity="0" result="BackgroundImageFix"/>
<feColorMatrix in="SourceAlpha" type="matrix" values="0 0 0 0 0 0 0 0 0 0 0 0 0 0 0 0 0 0 127 0" result="hardAlpha"/>
<feOffset dx="2" dy="4"/>
<feGaussianBlur stdDeviation="2"/>
<feComposite in2="hardAlpha" operator="out"/>
<feColorMatrix type="matrix" values="0 0 0 0 0 0 0 0 0 0 0 0 0 0 0 0 0 0 0.25 0"/>
<feBlend mode="normal" in2="BackgroundImageFix" result="effect1_dropShadow_22_2"/>
<feBlend mode="normal" in="SourceGraphic" in2="effect1_dropShadow_22_2" result="shape"/>
</filter>
<filter id="filter2_d_22_2" x="195.045" y="220.182" width="68.1364" height="78.7727" filterUnits="userSpaceOnUse" color-interpolation-filters="sRGB">
<feFlood flood-opacity="0" result="BackgroundImageFix"/>
<feColorMatrix in="SourceAlpha" type="matrix" values="0 0 0 0 0 0 0 0 0 0 0 0 0 0 0 0 0 0 127 0" result="hardAlpha"/>
<feOffset dx="2" dy="4"/>
<feGaussianBlur stdDeviation="2"/>
<feComposite in2="hardAlpha" operator="out"/>
<feColorMatrix type="matrix" values="0 0 0 0 0 0 0 0 0 0 0 0 0 0 0 0 0 0 0.25 0"/>
<feBlend mode="normal" in2="BackgroundImageFix" result="effect1_dropShadow_22_2"/>
<feBlend mode="normal" in="SourceGraphic" in2="effect1_dropShadow_22_2" result="shape"/>
</filter>
<filter id="filter3_d_22_2" x="32" y="130" width="162.167" height="258" filterUnits="userSpaceOnUse" color-interpolation-filters="sRGB">
<feFlood flood-opacity="0" result="BackgroundImageFix"/>
<feColorMatrix in="SourceAlpha" type="matrix" values="0 0 0 0 0 0 0 0 0 0 0 0 0 0 0 0 0 0 127 0" result="hardAlpha"/>
<feOffset dx="2" dy="4"/>
<feGaussianBlur stdDeviation="2"/>
<feComposite in2="hardAlpha" operator="out"/>
<feColorMatrix type="matrix" values="0 0 0 0 0 0 0 0 0 0 0 0 0 0 0 0 0 0 0.25 0"/>
<feBlend mode="normal" in2="BackgroundImageFix" result="effect1_dropShadow_22_2"/>
<feBlend mode="normal" in="SourceGraphic" in2="effect1_dropShadow_22_2" result="shape"/>
</filter>
</defs>
</svg>
